<svg xmlns="http://www.w3.org/2000/svg" xmlns:xlink="http://www.w3.org/1999/xlink" version="1.1" x="0px" y="0px" viewBox="0 0 100 125" style="enable-background:new 0 0 100 100;" xml:space="preserve"><path d="M89.85,11.58c-0.18-0.7-0.73-1.25-1.43-1.43C72.49,6.02,54.26,11.8,40.84,25.22c-2.25,2.25-4.3,4.67-6.12,7.21l-4.08-4.08  c-0.59-0.59-1.49-0.75-2.25-0.4L10,36.43c-0.74,0.34-1.2,1.09-1.16,1.9l1.41,32.53c0.03,0.79,0.53,1.49,1.27,1.78  c0.24,0.09,0.48,0.14,0.72,0.14c0.52,0,1.03-0.2,1.41-0.59L27.1,58.76l5.66,5.66L19.32,77.85c-0.78,0.78-0.78,2.05,0,2.83  c0.39,0.39,0.9,0.59,1.41,0.59s1.02-0.2,1.41-0.59l13.44-13.44l5.66,5.66L27.81,86.33c-0.56,0.56-0.74,1.4-0.45,2.14  c0.29,0.74,0.98,1.24,1.78,1.27l32.53,1.41c0.03,0,0.06,0,0.09,0c0.78,0,1.49-0.45,1.82-1.16l8.49-18.38  c0.35-0.76,0.19-1.66-0.4-2.25l-4.08-4.08c2.54-1.83,4.95-3.87,7.2-6.12C88.2,45.74,93.98,27.51,89.85,11.58z M12.9,39.5l15.9-7.34  l3.65,3.65c-3.72,6.01-6.23,12.58-7.32,19.27L14.05,66.15L12.9,39.5z M67.84,71.2L60.5,87.1l-26.64-1.16l11.07-11.07  c6.68-1.09,13.25-3.6,19.27-7.32L67.84,71.2z M44.85,70.84l-6.43-6.43l6.36-6.36c0.78-0.78,0.78-2.05,0-2.83s-2.05-0.78-2.83,0  l-6.36,6.36l-6.43-6.43c1.74-9.87,6.87-19.46,14.51-27.1c11.91-11.91,28.5-17.44,42.59-14.31c3.14,14.1-2.4,30.68-14.31,42.59  C64.31,63.97,54.72,69.1,44.85,70.84z M68.11,22.89c-2.4,0-4.66,0.94-6.36,2.64c-3.51,3.51-3.51,9.22,0,12.73  c1.7,1.7,3.96,2.64,6.36,2.64c2.4,0,4.67-0.94,6.36-2.64c3.51-3.51,3.51-9.22,0-12.73C72.78,23.82,70.52,22.89,68.11,22.89z   M71.65,35.42c-0.94,0.94-2.2,1.46-3.54,1.46c-1.33,0-2.59-0.52-3.54-1.46c-1.95-1.95-1.95-5.12,0-7.07  c0.94-0.94,2.2-1.46,3.54-1.46c1.34,0,2.59,0.52,3.54,1.46C73.6,30.3,73.6,33.47,71.65,35.42z"/>
</svg>